<svg xmlns="http://www.w3.org/2000/svg" viewBox="0 0 1024 1024" width="1024" height="1024" shape-rendering="geometricPrecision">
<path fill="#c6a963" stroke="#c6a963" stroke-width="1.5" paint-order="stroke fill" stroke-linejoin="round" fill-rule="evenodd" d="M 431 784 L 390 820 L 432 849 Z M 324 738 L 290 758 L 342 811 L 369 782 L 370 779 Z M 726 740 L 681 695 L 679 695 L 583 770 L 593 807 L 644 807 Z M 269 692 L 282 745 L 311 728 Z M 532 669 L 585 668 L 628 625 L 560 625 Z M 449 522 L 420 552 L 420 554 L 516 664 L 546 619 Z M 706 486 L 706 559 L 754 511 Z M 638 440 L 622 476 L 523 574 L 554 606 L 557 606 L 638 524 Z M 591 355 L 566 400 L 614 456 L 628 425 L 636 402 Z M 758 346 L 706 360 L 706 469 L 759 496 Z M 706 298 L 706 344 L 752 332 Z M 303 298 L 280 298 L 251 327 L 251 403 L 303 353 Z M 167 241 L 167 340 L 192 368 L 192 267 Z M 465 215 L 466 262 L 599 262 L 599 215 Z M 450 215 L 390 211 L 397 220 L 396 225 L 391 230 L 355 252 L 355 318 L 450 264 Z M 615 172 L 615 204 L 652 238 L 655 239 L 684 213 L 678 208 Z"/>
<path fill="#88555f" stroke="#88555f" stroke-width="1.5" paint-order="stroke fill" stroke-linejoin="round" fill-rule="evenodd" d="M 595 847 L 624 823 L 595 822 Z M 448 823 L 447 837 L 449 856 L 579 855 L 578 822 Z M 832 775 L 830 775 L 830 828 L 787 869 L 787 871 L 805 887 L 856 863 L 856 799 Z M 740 754 L 739 825 L 774 859 L 776 859 L 812 825 Z M 408 745 L 406 745 L 409 754 L 409 759 L 363 810 L 370 819 L 429 766 Z M 333 679 L 333 726 L 381 768 L 393 755 L 384 729 Z M 273 675 L 312 709 L 317 711 L 316 668 Z M 693 684 L 693 686 L 738 730 L 780 698 L 856 697 L 856 675 L 809 643 L 746 643 Z M 450 667 L 451 669 L 499 668 L 470 635 L 467 636 Z M 411 567 L 388 617 L 432 662 L 435 663 L 458 621 Z M 468 413 L 465 414 L 386 492 L 386 583 L 403 548 L 501 448 L 499 444 Z M 523 351 L 555 387 L 560 381 L 576 350 Z M 731 264 L 715 285 L 741 305 L 749 309 L 734 265 Z M 621 272 L 689 335 L 691 334 L 691 297 L 653 259 L 649 259 Z M 615 226 L 615 257 L 639 247 L 623 231 Z M 697 222 L 666 249 L 666 252 L 698 282 L 721 254 L 724 247 Z M 333 178 L 332 247 L 334 248 L 376 221 L 376 219 L 338 181 Z M 469 175 L 415 194 L 411 197 L 452 200 L 461 189 Z M 472 198 L 473 200 L 598 200 L 599 167 L 494 166 Z"/>
<path fill="#288184" stroke="#288184" stroke-width="1.5" paint-order="stroke fill" stroke-linejoin="round" fill-rule="evenodd" d="M 447 775 L 448 807 L 578 807 L 569 774 Z M 263 509 L 263 661 L 317 653 L 317 541 Z M 691 492 L 574 610 L 643 610 L 691 574 Z M 317 449 L 268 494 L 317 524 Z M 450 409 L 375 409 L 333 435 L 332 520 L 384 474 Z M 506 355 L 477 400 L 575 501 L 607 470 Z M 492 350 L 436 350 L 393 394 L 464 394 Z M 228 194 L 228 238 L 275 238 L 275 194 Z M 167 139 L 166 179 L 275 179 L 275 139 Z"/>
<path fill="#114f53" fill-rule="evenodd" d="M 313 284 L 276 284 L 238 320 L 237 322 L 237 423 L 240 427 L 244 428 L 248 426 L 316 360 L 317 358 L 317 289 Z M 303 297 L 304 298 L 304 354 L 250 405 L 249 404 L 249 328 L 280 297 Z M 158 215 L 153 219 L 153 345 L 159 353 L 195 392 L 202 393 L 206 389 L 206 262 L 164 217 L 161 215 Z M 167 239 L 194 268 L 194 369 L 193 370 L 188 366 L 165 340 L 165 241 Z M 322 153 L 319 156 L 319 265 L 323 268 L 327 268 L 339 261 L 341 262 L 341 330 L 340 331 L 341 335 L 343 337 L 349 338 L 425 294 L 434 290 L 457 276 L 461 275 L 462 276 L 605 276 L 692 357 L 692 471 L 654 510 L 652 509 L 652 400 L 650 396 L 594 337 L 592 336 L 431 336 L 368 398 L 326 423 L 318 429 L 260 483 L 249 495 L 249 670 L 262 720 L 262 724 L 264 728 L 267 744 L 273 762 L 337 826 L 340 828 L 344 828 L 356 817 L 408 759 L 408 754 L 405 746 L 406 743 L 415 750 L 430 766 L 421 775 L 372 817 L 371 823 L 377 829 L 437 869 L 590 869 L 725 759 L 726 760 L 726 832 L 727 834 L 799 901 L 801 902 L 808 901 L 868 873 L 870 870 L 870 794 L 869 792 L 826 750 L 820 749 L 816 754 L 816 806 L 814 807 L 748 741 L 749 739 L 783 712 L 865 712 L 870 708 L 870 669 L 869 667 L 812 629 L 744 629 L 741 630 L 574 760 L 444 760 L 421 737 L 401 723 L 396 721 L 331 657 L 331 540 L 371 504 L 372 505 L 372 619 L 385 634 L 432 681 L 434 682 L 516 682 L 517 683 L 518 682 L 590 682 L 592 681 L 653 619 L 702 583 L 772 512 L 773 510 L 773 334 L 760 300 L 757 289 L 755 286 L 752 275 L 747 264 L 745 256 L 743 253 L 741 245 L 703 207 L 609 153 L 487 153 L 446 169 L 427 175 L 419 179 L 389 189 L 373 196 L 328 153 Z M 593 848 L 594 846 L 593 845 L 593 826 L 595 821 L 626 821 L 627 822 L 596 847 L 595 849 Z M 447 822 L 448 821 L 579 821 L 580 822 L 580 856 L 579 857 L 448 857 L 447 856 L 447 838 L 446 837 L 447 835 Z M 432 782 L 434 783 L 434 850 L 433 851 L 389 821 L 396 813 Z M 831 773 L 857 799 L 857 863 L 843 871 L 841 871 L 805 888 L 796 881 L 785 870 L 824 834 L 829 828 L 829 774 Z M 446 775 L 448 773 L 569 773 L 571 776 L 573 788 L 579 807 L 578 808 L 448 808 L 447 807 L 447 780 L 446 779 L 447 778 Z M 740 752 L 813 825 L 806 833 L 797 840 L 776 860 L 774 860 L 738 825 L 739 823 L 738 818 L 739 817 L 739 753 Z M 323 737 L 325 737 L 372 779 L 367 786 L 343 812 L 341 812 L 289 759 L 291 756 L 297 752 L 304 749 Z M 727 739 L 727 741 L 646 807 L 642 809 L 620 809 L 619 808 L 593 809 L 592 808 L 582 770 L 680 693 Z M 267 691 L 268 690 L 313 728 L 282 747 L 280 745 L 277 729 L 272 712 L 272 708 L 269 699 L 269 695 Z M 332 677 L 385 729 L 388 735 L 394 755 L 381 769 L 375 765 L 374 763 L 332 726 L 331 722 L 331 700 L 332 699 L 331 696 L 332 694 L 331 693 L 332 691 L 331 690 L 332 688 L 331 687 L 332 679 L 331 678 Z M 271 675 L 273 673 L 280 673 L 287 671 L 317 667 L 318 668 L 318 712 L 316 713 Z M 691 685 L 746 642 L 809 642 L 857 675 L 857 698 L 856 699 L 780 699 L 777 700 L 747 725 L 738 731 Z M 448 668 L 466 636 L 469 633 L 501 669 L 500 670 L 449 670 Z M 629 624 L 597 658 L 584 670 L 531 670 L 530 669 L 559 624 L 609 624 L 610 623 L 611 624 L 627 624 L 628 623 Z M 410 566 L 418 573 L 459 621 L 449 641 L 444 648 L 437 662 L 434 665 L 387 617 L 387 615 Z M 449 521 L 547 618 L 545 623 L 535 637 L 529 648 L 516 666 L 461 604 L 418 553 Z M 263 508 L 318 541 L 318 653 L 317 654 L 272 660 L 271 661 L 265 661 L 264 662 L 262 661 L 262 509 Z M 691 491 L 692 492 L 692 574 L 643 611 L 574 611 L 573 610 L 575 607 Z M 707 485 L 756 510 L 706 561 L 704 558 L 705 557 L 705 486 Z M 511 457 L 513 457 L 565 511 L 565 513 L 513 565 L 459 511 Z M 317 448 L 318 449 L 318 524 L 317 525 L 270 497 L 267 494 Z M 639 438 L 640 439 L 639 440 L 639 446 L 640 447 L 640 461 L 639 462 L 640 465 L 640 481 L 639 482 L 640 483 L 640 512 L 639 513 L 639 525 L 555 608 L 522 574 L 622 474 L 632 452 L 634 445 L 637 439 Z M 468 411 L 500 444 L 502 448 L 404 548 L 386 586 L 385 585 L 385 492 Z M 451 409 L 369 489 L 332 521 L 331 520 L 331 436 L 333 434 L 375 408 L 450 408 Z M 590 354 L 595 357 L 638 403 L 619 450 L 614 458 L 565 400 L 570 389 Z M 506 354 L 508 355 L 513 362 L 515 363 L 521 371 L 561 415 L 608 470 L 575 502 L 566 494 L 476 400 L 481 394 L 490 378 Z M 521 350 L 522 349 L 576 349 L 577 350 L 561 381 L 556 388 L 547 380 Z M 493 350 L 464 395 L 402 395 L 401 394 L 400 395 L 398 394 L 393 395 L 392 394 L 436 349 L 492 349 Z M 756 345 L 761 346 L 761 496 L 760 497 L 758 497 L 756 495 L 754 495 L 742 488 L 738 487 L 724 479 L 722 479 L 706 471 L 704 466 L 705 360 L 707 358 L 737 351 Z M 704 298 L 706 296 L 754 332 L 752 334 L 714 343 L 706 346 L 705 345 Z M 732 262 L 735 265 L 742 288 L 751 310 L 750 312 L 714 286 Z M 619 272 L 623 269 L 652 257 L 692 297 L 692 337 L 691 338 Z M 614 225 L 616 224 L 641 247 L 615 259 L 613 257 L 613 228 Z M 697 221 L 702 224 L 725 247 L 722 254 L 698 284 L 664 251 L 671 243 Z M 464 215 L 466 213 L 599 213 L 600 214 L 600 262 L 599 263 L 465 263 L 464 262 Z M 450 213 L 451 214 L 451 265 L 354 320 L 353 319 L 353 253 L 365 244 L 394 226 L 395 218 L 388 211 L 389 210 L 405 210 L 406 211 Z M 333 176 L 378 220 L 371 226 L 332 250 L 331 249 L 331 177 Z M 472 174 L 455 199 L 452 201 L 415 199 L 406 197 L 439 184 L 450 181 L 469 173 Z M 613 172 L 616 171 L 685 211 L 686 213 L 654 241 L 613 204 Z M 470 200 L 494 165 L 599 165 L 600 166 L 600 199 L 598 201 L 471 201 Z M 153 129 L 153 189 L 158 193 L 213 193 L 214 194 L 214 248 L 218 252 L 284 252 L 288 249 L 288 129 L 286 126 L 284 125 L 157 125 Z M 227 194 L 228 193 L 275 193 L 276 194 L 276 238 L 275 239 L 228 239 L 227 238 Z M 167 138 L 275 138 L 276 139 L 276 179 L 275 180 L 166 180 L 165 179 L 165 159 L 166 158 L 165 155 L 166 153 L 165 149 L 166 144 L 165 143 Z"/>
</svg>